<svg width="27" height="27" viewBox="0 0 27 27" fill="none" xmlns="http://www.w3.org/2000/svg">
<path fill-rule="evenodd" clip-rule="evenodd" d="M2.77767 11.2152C2.85605 11.1366 2.94915 11.0743 3.05166 11.0317C3.15417 10.9892 3.26406 10.9673 3.37504 10.9673C3.48603 10.9673 3.59592 10.9892 3.69843 11.0317C3.80093 11.0743 3.89404 11.1366 3.97242 11.2152L13.5 20.7445L23.0277 11.2152C23.1861 11.0567 23.401 10.9677 23.625 10.9677C23.8491 10.9677 24.064 11.0567 24.2224 11.2152C24.3809 11.3736 24.4699 11.5885 24.4699 11.8125C24.4699 12.0366 24.3809 12.2515 24.2224 12.4099L14.0974 22.5349C14.019 22.6135 13.9259 22.6758 13.8234 22.7184C13.7209 22.7609 13.611 22.7828 13.5 22.7828C13.3891 22.7828 13.2792 22.7609 13.1767 22.7184C13.0742 22.6758 12.981 22.6135 12.9027 22.5349L2.77767 12.4099C2.69909 12.3315 2.63675 12.2384 2.59422 12.1359C2.55168 12.0334 2.52979 11.9235 2.52979 11.8125C2.52979 11.7016 2.55168 11.5917 2.59422 11.4892C2.63675 11.3867 2.69909 11.2935 2.77767 11.2152Z" fill="white"/>
<path fill-rule="evenodd" clip-rule="evenodd" d="M2.77767 2.46517C2.85605 2.38659 2.94915 2.32425 3.05166 2.28172C3.15417 2.23918 3.26406 2.21729 3.37504 2.21729C3.48603 2.21729 3.59592 2.23918 3.69843 2.28172C3.80093 2.32425 3.89404 2.38659 3.97242 2.46517L13.5 11.9945L23.0277 2.46517C23.1061 2.38672 23.1992 2.32449 23.3017 2.28204C23.4042 2.23958 23.5141 2.21773 23.625 2.21773C23.736 2.21773 23.8458 2.23958 23.9483 2.28204C24.0508 2.32449 24.144 2.38672 24.2224 2.46517C24.3009 2.54362 24.3631 2.63675 24.4056 2.73925C24.448 2.84174 24.4699 2.9516 24.4699 3.06254C24.4699 3.17349 24.448 3.28334 24.4056 3.38584C24.3631 3.48834 24.3009 3.58147 24.2224 3.65992L14.0974 13.7849C14.019 13.8635 13.9259 13.9258 13.8234 13.9684C13.7209 14.0109 13.611 14.0328 13.5 14.0328C13.3891 14.0328 13.2792 14.0109 13.1767 13.9684C13.0742 13.9258 12.981 13.8635 12.9027 13.7849L2.77767 3.65992C2.69909 3.58154 2.63675 3.48843 2.59422 3.38593C2.55168 3.28342 2.52979 3.17353 2.52979 3.06254C2.52979 2.95156 2.55168 2.84167 2.59422 2.73916C2.63675 2.63665 2.69909 2.54355 2.77767 2.46517Z" fill="white"/>
</svg>
