<svg width="90" height="90" viewBox="0 0 90 90" fill="none" xmlns="http://www.w3.org/2000/svg">
<path d="M52.9031 5.90625C50.58 -1.96875 39.42 -1.96875 37.0969 5.90625L36.5344 7.81875C36.1873 8.99772 35.5807 10.084 34.7591 10.9981C33.9375 11.9121 32.9217 12.6306 31.7863 13.101C30.6508 13.5713 29.4245 13.7816 28.1973 13.7163C26.97 13.651 25.7729 13.3119 24.6937 12.7238L22.95 11.7675C15.7331 7.84125 7.84125 15.7331 11.7731 22.9444L12.7238 24.6937C15.2325 29.3062 12.8531 35.0494 7.81875 36.5344L5.90625 37.0969C-1.96875 39.42 -1.96875 50.58 5.90625 52.9031L7.81875 53.4656C8.99772 53.8127 10.084 54.4193 10.9981 55.2409C11.9121 56.0625 12.6306 57.0783 13.101 58.2137C13.5713 59.3492 13.7816 60.5755 13.7163 61.8027C13.651 63.03 13.3119 64.2271 12.7238 65.3063L11.7675 67.05C7.84125 74.2669 15.7331 82.1587 22.9444 78.2269L24.6937 77.2763C25.7729 76.6881 26.97 76.349 28.1973 76.2837C29.4245 76.2184 30.6508 76.4287 31.7863 76.899C32.9217 77.3694 33.9375 78.0879 34.7591 79.0019C35.5807 79.916 36.1873 81.0023 36.5344 82.1813L37.0969 84.0938C39.42 91.9688 50.58 91.9688 52.9031 84.0938L53.4656 82.1813C53.8127 81.0023 54.4193 79.916 55.2409 79.0019C56.0625 78.0879 57.0783 77.3694 58.2137 76.899C59.3492 76.4287 60.5755 76.2184 61.8027 76.2837C63.03 76.349 64.2271 76.6881 65.3063 77.2763L67.05 78.2325C74.2669 82.1588 82.1587 74.2669 78.2269 67.0556L77.2763 65.3063C76.6881 64.2271 76.349 63.03 76.2837 61.8027C76.2184 60.5755 76.4287 59.3492 76.899 58.2137C77.3694 57.0783 78.0879 56.0625 79.0019 55.2409C79.916 54.4193 81.0023 53.8127 82.1813 53.4656L84.0938 52.9031C91.9688 50.58 91.9688 39.42 84.0938 37.0969L82.1813 36.5344C81.0023 36.1873 79.916 35.5807 79.0019 34.7591C78.0879 33.9375 77.3694 32.9217 76.899 31.7863C76.4287 30.6508 76.2184 29.4245 76.2837 28.1973C76.349 26.97 76.6881 25.7729 77.2763 24.6937L78.2325 22.95C82.1588 15.7331 74.2669 7.84125 67.0556 11.7731L65.3063 12.7238C64.2271 13.3119 63.03 13.651 61.8027 13.7163C60.5755 13.7816 59.3492 13.5713 58.2137 13.101C57.0783 12.6306 56.0625 11.9121 55.2409 10.9981C54.4193 10.084 53.8127 8.99772 53.4656 7.81875L52.9031 5.90625ZM45 61.4813C40.6289 61.4813 36.4368 59.7448 33.346 56.654C30.2552 53.5632 28.5188 49.3711 28.5188 45C28.5188 40.6289 30.2552 36.4368 33.346 33.346C36.4368 30.2552 40.6289 28.5188 45 28.5188C49.3696 28.5188 53.5602 30.2546 56.65 33.3443C59.7398 36.4341 61.4756 40.6248 61.4756 44.9944C61.4756 49.364 59.7398 53.5546 56.65 56.6444C53.5602 59.7342 49.3696 61.47 45 61.47V61.4813Z" fill="#212121"/>
</svg>
