<svg width="38" height="38" viewBox="0 0 38 38" fill="none" xmlns="http://www.w3.org/2000/svg">
<path d="M26.82 34.8335C24.4086 34.8335 22.3233 33.9738 20.6292 32.2796C18.8511 30.5015 17.9264 27.7608 18.1734 25.1641L4.61376 11.6044C3.68811 10.6769 3.16851 9.41979 3.16911 8.10937C3.1697 6.79894 3.69044 5.54234 4.61693 4.61561C6.48209 2.74727 9.73742 2.74727 11.6026 4.61561L25.6689 18.6819C28.6978 18.9495 31.6967 21.0902 31.6967 24.887C31.6967 25.3668 31.6634 25.818 31.6302 26.2487C31.5035 27.8811 31.4576 28.4939 33.9593 29.7447C34.205 29.868 34.4144 30.053 34.567 30.2817C34.7196 30.5104 34.81 30.7748 34.8295 31.049C34.849 31.3232 34.7968 31.5978 34.6781 31.8457C34.5594 32.0937 34.3782 32.3065 34.1524 32.4633C34.0099 32.5583 30.6802 34.8335 26.82 34.8335C26.8216 34.8335 26.8216 34.8335 26.82 34.8335ZM9.36376 6.85286C9.02591 6.52876 8.5757 6.34806 8.10754 6.34865C7.63937 6.34924 7.18962 6.53107 6.85259 6.85602C6.6879 7.02069 6.55726 7.21619 6.46813 7.43135C6.379 7.64652 6.33313 7.87713 6.33313 8.11002C6.33313 8.34291 6.379 8.57353 6.46813 8.78869C6.55726 9.00385 6.6879 9.19935 6.85259 9.36402L18.9999 21.5114L21.5111 19.0002L9.36376 6.85286ZM28.4714 26.0033C28.4999 25.6486 28.53 25.2781 28.53 24.8854C28.53 22.4392 26.2421 21.7932 25.0308 21.7932C24.4672 21.7932 23.9241 21.9088 23.5045 22.1194C22.0083 22.8714 21.5095 24.1666 21.3559 25.1214C21.0757 26.8472 21.6995 28.8707 22.8696 30.0408C23.9637 31.1348 25.2557 31.6669 26.82 31.6669H26.8216C28.0091 31.6669 29.1633 31.3565 30.1054 30.9908C28.3923 29.4502 28.3305 27.8415 28.4714 26.0033Z" fill="#6C9EE9"/>
</svg>
