<svg width="89" height="89" viewBox="0 0 89 89" fill="none" xmlns="http://www.w3.org/2000/svg">
<path d="M41.3438 16.094C37.8088 16.094 34.5073 17.0598 31.6856 18.7452C31.3814 15.5081 30.3453 12.3825 28.6556 9.60473C32.7481 7.56084 37.2736 6.53553 41.8474 6.616C46.4211 6.69647 50.9078 7.88033 54.9258 10.0669C58.9438 12.2535 62.3743 15.3781 64.9256 19.175C67.4769 22.9719 69.0735 27.3289 69.5796 31.8752H77.6469C83.7448 31.8752 88.6938 36.8242 88.6938 42.9221V71.3284C88.6938 72.7796 88.4079 74.2166 87.8523 75.5573C87.2968 76.8979 86.4825 78.116 85.456 79.1419C84.4296 80.1678 83.211 80.9814 81.87 81.5362C80.529 82.0909 79.0919 82.3761 77.6406 82.3752H49.2344C46.3046 82.3752 43.4947 81.2114 41.4231 79.1397C39.3514 77.068 38.1875 74.2582 38.1875 71.3284V63.2673C35.9991 63.0245 33.8467 62.5266 31.774 61.7839C31.8371 60.2941 31.875 58.7412 31.875 57.1252V56.6202C31.875 55.1052 31.875 53.3188 31.8119 51.3998C33.7791 52.552 35.9395 53.337 38.1875 53.7165V42.9221C38.1875 36.8242 43.1365 31.8752 49.2344 31.8752H60.0224C59.2764 27.4615 56.9909 23.4547 53.5716 20.5658C50.1523 17.6768 45.8201 16.0926 41.3438 16.094ZM69.0493 41.344C67.8564 46.561 65.2163 51.3357 61.4321 55.1199C57.648 58.904 52.8732 61.5442 47.6562 62.737V71.3284C47.6562 72.1995 48.3633 72.9065 49.2344 72.9065H77.6406C78.0592 72.9065 78.4606 72.7402 78.7565 72.4443C79.0525 72.1483 79.2188 71.7469 79.2188 71.3284V42.9221C79.2188 42.5036 79.0525 42.1022 78.7565 41.8062C78.4606 41.5103 78.0592 41.344 77.6406 41.344H69.0493ZM59.2018 41.344H49.2344C48.8158 41.344 48.4144 41.5103 48.1185 41.8062C47.8225 42.1022 47.6562 42.5036 47.6562 42.9221V52.8959C50.3201 51.9515 52.7396 50.4243 54.7381 48.4258C56.7366 46.4273 58.2637 44.0079 59.2081 41.344H59.2018ZM16.6051 1.1018C17.129 1.5601 17.4868 2.17876 17.6226 2.86148C17.7585 3.54421 17.6648 4.2527 17.3563 4.87667C17.3028 5.06135 17.2752 5.25254 17.2742 5.4448C17.2742 5.84248 17.3752 6.59998 18.3284 7.54686C18.7892 8.00767 19.1427 8.33592 19.5278 8.69574C19.8434 8.98611 20.1779 9.28911 20.6009 9.70574C21.4215 10.4885 22.2863 11.4101 23.0627 12.5653C24.6724 14.983 25.5625 18.0067 25.5625 22.4065C25.5625 27.6585 23.6688 32.1467 20.6893 34.981C22.5325 36.8495 23.6056 39.2924 24.2684 41.7354C25.5625 46.4824 25.5625 52.353 25.5625 56.8917V57.1252C25.5625 70.1164 23.1322 77.8302 20.3799 82.4194C19.3402 84.2265 17.9747 85.8252 16.3526 87.1349C15.7101 87.636 15.0109 88.0597 14.2694 88.3974C14.2694 88.3974 13.4677 88.6877 12.9375 88.6877C12.4824 88.6516 12.0344 88.5539 11.6056 88.3974C10.8641 88.0597 10.1649 87.636 9.52244 87.1349C7.9003 85.8252 6.5348 84.2265 5.49506 82.4194C2.74281 77.8365 0.3125 70.1164 0.3125 57.1252V56.898C0.3125 52.353 0.3125 46.4887 1.60656 41.729C2.26938 39.2924 3.3425 36.8495 5.18575 34.9747C2.20625 32.153 0.3125 27.6585 0.3125 22.4065C0.3125 20.3486 0.861688 17.893 1.61919 15.6269C2.37669 13.3544 3.43719 11.0061 4.66181 9.11236C6.12 6.65049 8.17156 4.5863 9.76231 3.19755C10.6344 2.43056 11.5446 1.70791 12.4893 1.03236L12.6787 0.90611L12.7355 0.861923L12.7544 0.849298L12.7671 0.842985C13.3459 0.457144 14.036 0.273339 14.73 0.320143C15.4241 0.366947 16.0833 0.641737 16.6051 1.1018Z" fill="#212121"/>
</svg>
