<svg width="380" height="440" viewBox="0 0 380 440" fill="none" xmlns="http://www.w3.org/2000/svg">
<path fill-rule="evenodd" clip-rule="evenodd" d="M195.738 129.49C200.346 124.081 203.464 117.452 202.943 110.025C201.442 88.6245 171.651 93.3323 165.857 104.133C160.062 114.935 160.75 142.333 168.24 144.263C171.226 145.033 177.589 143.147 184.065 139.244L180 168H204L195.738 129.49Z" fill="#E9BE97"/>
<path fill-rule="evenodd" clip-rule="evenodd" d="M188.27 117.867C189.055 117.327 189.993 117 191 117C193.761 117 196 119.462 196 122C196 124.639 194.753 126.681 192.973 127.546C193.924 129.405 194.88 130.754 196 131C200.322 130.562 206 119.82 206 111C206 101.345 198.318 92.9995 184 92.9995C171.131 92.9995 166.251 98.3057 166 103C171.515 104.515 181.151 105.099 195 105V106L183 107L181 113C184.182 112.762 186.456 114.944 188.27 117.867Z" fill="#191847"/>
<path d="M214 425C171.474 425 137 392.092 137 351.5C137 310.907 171.474 278 214 278C256.526 278 291 310.907 291 351.5C291 392.092 256.526 425 214 425Z" fill="#C5CFD6"/>
<path fill-rule="evenodd" clip-rule="evenodd" d="M68.491 413.66C81.3037 385.301 90.5698 360.608 94.2892 347.58C100.658 325.272 105.502 305.643 106.727 298.312C109.647 280.832 84.2649 279.814 80.91 288.501C75.8321 301.65 66.9673 344.852 56.3156 410.107L68.491 413.66ZM217.112 324.663C205.356 320.016 164.188 305.475 144.333 301.361C138.627 300.179 133.097 299.08 127.898 298.088C112.444 295.138 104.438 323.017 119.322 325.159C156.389 330.494 208.937 336.003 213.434 336.621C219.737 337.488 224.5 327.584 217.112 324.663Z" fill="#E9BE97"/>
<path fill-rule="evenodd" clip-rule="evenodd" d="M118.413 290.416L182 258.046V251H174.438C112.92 266.675 81.4846 276.721 80.1313 281.137C80.1168 281.185 80.1034 281.232 80.0913 281.28C80.0603 281.321 80.0299 281.362 80 281.403C67.8085 298.17 60.5071 380.026 58.1106 386.156L81.4723 389.641C90.4087 356.503 119 333.418 118.241 293.729C118.446 292.564 118.497 291.46 118.413 290.416Z" fill="#2F2F2F"/>
<path fill-rule="evenodd" clip-rule="evenodd" d="M176.717 309.64C182.535 308.475 187.893 307.436 192.477 306.632C222.091 301.438 230.726 285.586 225.62 251H171.058C162.145 253.56 115.826 272.984 91.7934 283.316C75.8874 290.154 80.9015 314.804 89.909 321.219C89.958 321.613 90.1201 321.88 90.4087 322C138.863 342.082 177.195 331.545 190 334.912L195.923 316.228L176.717 309.64Z" fill="#383838"/>
<path fill-rule="evenodd" clip-rule="evenodd" d="M213.092 321.693C216.267 321.997 218.52 322.474 219.853 323.124C221.474 323.914 223.707 325.338 226.553 327.394C225.636 329.274 217.395 346.172 201.828 378.088C196.831 377.281 194.85 375.374 195.888 372.366C196.925 369.359 197.761 366.848 198.397 364.834L199.385 336.149C199.404 335.597 199.867 335.165 200.418 335.184C200.428 335.184 200.437 335.185 200.447 335.185L204.859 335.463C207.367 333.433 209.021 331.597 209.822 329.954C210.473 328.62 210.833 326.514 210.902 323.636L210.902 323.636C210.929 322.532 211.845 321.658 212.95 321.685C212.997 321.686 213.045 321.689 213.092 321.693Z" fill="#E4E4E4"/>
<path fill-rule="evenodd" clip-rule="evenodd" d="M74.3219 408.401C75.4406 411.387 76 413.622 76 415.105C76 416.908 75.6996 419.539 75.0988 422.999C73.0068 422.999 54.2062 422.999 18.6969 422.999C17.2313 418.154 18.0773 415.538 21.2352 415.151C24.393 414.765 27.0163 414.416 29.105 414.105L55.32 402.418C55.8244 402.193 56.4157 402.42 56.6405 402.924C56.6444 402.933 56.6481 402.941 56.6517 402.95L58.3368 407.038C61.2601 408.402 63.6356 409.084 65.4633 409.084C66.9483 409.084 68.999 408.484 71.6155 407.285L71.6155 407.285C72.6196 406.824 73.8067 407.265 74.267 408.269C74.2869 408.312 74.3052 408.356 74.3219 408.401Z" fill="#E4E4E4"/>
<path fill-rule="evenodd" clip-rule="evenodd" d="M122.11 231.131L90.212 254.554C81.5605 256.889 74.3325 259.793 68.5279 263.268C67.1568 264.517 65.4996 267.048 71.1861 266.61C76.8725 266.173 82.8735 265.969 83.6581 267.908C84.4427 269.848 81.0016 272.167 82.5877 274.784C83.645 276.529 88.6405 272.154 97.574 261.66L129.162 248.562L122.11 231.131ZM266.461 221.374L248.849 224.563C269.289 265.124 280.237 286.57 281.692 288.902C284.967 294.147 281.661 303.598 280.414 308.584C287.661 310.405 284.982 299.401 294.15 301.849C302.518 304.083 309.55 309.565 317.513 302.477C318.492 301.605 319.246 298.841 315.985 297.359C307.863 293.668 295.888 286.814 293.973 284.2C291.36 280.636 282.19 259.694 266.461 221.374Z" fill="#E9BE97"/>
<path fill-rule="evenodd" clip-rule="evenodd" d="M114.679 233.677C110.575 233.383 106.111 234.063 101.325 235.675C98.9695 236.469 97.7036 239.022 98.4971 241.377C98.958 242.745 100.012 243.745 101.277 244.188C100.361 244.856 99.4368 245.521 98.5046 246.181L106.552 262.609C140.415 245.725 172.243 232.995 186.746 205.121C191.614 195.766 189.966 163.988 190.431 152.427L179.736 148.041C164.827 178.858 144.651 208.423 114.679 233.677Z" fill="#5488D8"/>
<path fill-rule="evenodd" clip-rule="evenodd" d="M228 259.909C196.562 263.363 171.816 263.363 153.764 259.909C151.527 259.481 151.625 249.84 152.663 247.207C168.815 206.201 179.44 176.184 179.44 147.702C182.403 149.25 187.59 149.482 195 148.398C214.914 177.749 224.067 211.426 228 259.909Z" fill="#E4E4E4"/>
<path fill-rule="evenodd" clip-rule="evenodd" d="M233.841 264.757C234.909 263.753 235.465 262.247 235.192 260.695L234.671 257.741C234.318 255.739 232.692 254.281 230.772 254.053C230.436 252.552 230.147 251.062 229.908 249.583C227.889 237.087 231.338 224.834 231.176 212.802C247.256 226.521 261.681 250.211 274.452 283.871L293.338 278.313C292.618 275.636 291.871 272.991 291.099 270.38C293.279 269.141 295.826 263.465 293.993 262.516C292.1 261.535 290.094 260.844 287.982 260.438C270.664 208.279 242.345 170.132 203.024 146H199.545L191.651 146C195 190.28 148.75 286.954 164.809 369.518C194.492 376.146 236.868 355.522 278.117 372C276.582 338.75 245.836 299.69 233.841 264.757V264.757Z" fill="#6C9EE9"/>
<path fill-rule="evenodd" clip-rule="evenodd" d="M198.894 147L204.053 162.865L193.664 174.759L203.053 184.105L180.338 223L208.116 184.183L198.894 174.759L208.116 164.248L198.894 147Z" fill="black" fill-opacity="0.1"/>
<path fill-rule="evenodd" clip-rule="evenodd" d="M187 238C189.209 238 191 236.209 191 234C191 231.79 189.209 230 187 230C184.791 230 183 231.79 183 234C183 236.209 184.791 238 187 238ZM182 261C184.209 261 186 259.209 186 257C186 254.79 184.209 253 182 253C179.791 253 178 254.79 178 257C178 259.209 179.791 261 182 261ZM181 284C183.209 284 185 282.209 185 280C185 277.79 183.209 276 181 276C178.791 276 177 277.79 177 280C177 282.209 178.791 284 181 284Z" fill="black" fill-opacity="0.4"/>
<line x1="7" y1="424.5" x2="350" y2="424.5" stroke="#DCDCDC"/>
<g clip-path="url(#clip0_1659_4154)">
<path d="M155.659 59.7521C168.027 54.1912 173.546 39.6564 167.985 27.2879C162.424 14.9194 147.889 9.40076 135.521 14.9617C123.152 20.5227 117.634 35.0574 123.195 47.426C128.755 59.7945 143.29 65.3131 155.659 59.7521Z" fill="#FFF59D"/>
<path d="M160.147 30.812C156.27 22.1899 145.809 18.6821 137.416 23.6672C131.05 27.4717 128.091 35.2631 130.44 42.2838C132.196 47.6864 136.388 51.3208 141.28 52.6212C143.452 53.2601 145.316 54.7105 146.272 56.8381L146.423 57.174L159.86 51.1326L159.81 51.0206C158.904 49.0051 158.893 46.5867 159.857 44.5382C161.896 40.3907 162.211 35.4031 160.147 30.812Z" fill="#FBC02D"/>
<path d="M152.074 32.0186L147.708 31.2894C147.271 31.2165 146.711 31.4682 146.476 31.8432L144.482 34.8935L140.989 34.3101C140.553 34.2372 139.993 34.489 139.758 34.8639L137.405 38.6138C137.282 38.9385 137.159 39.2631 137.31 39.599C137.461 39.935 137.612 40.2709 137.937 40.3941L144.558 43.7439L149.894 55.6134L152.134 54.6065L146.596 42.2891C146.495 42.0651 146.283 41.8915 146.07 41.7179L140.311 38.7883L141.487 36.9134L144.98 37.4967C145.416 37.5696 145.976 37.3179 146.211 36.9429L148.093 33.943L150.276 34.3076L148.645 40.56C148.634 40.8343 148.623 41.1086 148.724 41.3325L154.262 53.6499L156.501 52.643L151.164 40.7735L153.053 33.5976C153.177 33.2729 153.138 32.8866 152.874 32.6011C152.611 32.3155 152.348 32.0299 152.074 32.0186Z" fill="#FFF59D"/>
<path d="M158.176 65.3513C160.031 64.5171 160.859 62.3369 160.025 60.4816C159.191 58.6264 157.01 57.7986 155.155 58.6327C153.3 59.4669 152.472 61.6471 153.306 63.5023C154.14 65.3576 156.321 66.1854 158.176 65.3513Z" fill="#5C6BC0"/>
<path d="M159.409 62.1044L154.93 64.1182C152.466 65.2258 149.544 64.1165 148.437 61.653L145.919 56.0542L159.357 50.0128L161.874 55.6116C162.981 58.0751 161.872 60.9968 159.409 62.1044Z" fill="#9FA8DA"/>
<path d="M161.874 55.6119L149.69 63.2436C150.378 63.8764 151.403 64.3582 152.388 64.4536L162.259 58.2655C162.405 57.3923 162.277 56.5077 161.874 55.6119ZM147.279 59.0779L148.286 61.3174L160.867 53.3724L159.86 51.1329L147.279 59.0779Z" fill="#5C6BC0"/>
</g>
<defs>
<clipPath id="clip0_1659_4154">
<rect width="58.9311" height="58.9311" fill="white" transform="translate(107.64 24.8052) rotate(-24.209)"/>
</clipPath>
</defs>
</svg>
