<svg width="99" height="30" viewBox="0 0 99 30" fill="none" xmlns="http://www.w3.org/2000/svg">
<path d="M20.4492 25.9434C20.3203 26.1191 20.1621 26.2715 19.9746 26.4004C19.7871 26.5293 19.5879 26.6406 19.377 26.7344C19.166 26.8164 18.9492 26.8809 18.7266 26.9277C18.5156 26.9629 18.3223 26.9805 18.1465 26.9805H15.4922C14.9531 26.9805 14.3555 27.0273 13.6992 27.1211C13.0547 27.2148 12.3984 27.332 11.7305 27.4727C11.0625 27.6133 10.3945 27.7715 9.72656 27.9473C9.07031 28.123 8.45508 28.2871 7.88086 28.4395C6.93164 28.709 6.04102 28.9434 5.20898 29.1426C4.38867 29.3418 3.67969 29.4414 3.08203 29.4414C2.56641 29.4414 2.12695 29.3711 1.76367 29.2305C1.40039 29.1016 1.10156 28.9199 0.867188 28.6855C0.644531 28.4629 0.480469 28.2051 0.375 27.9121C0.269531 27.6191 0.216797 27.3145 0.216797 26.998C0.216797 26.4121 0.287109 25.6973 0.427734 24.8535C0.568359 23.998 0.732422 23.1133 0.919922 22.1992C0.966797 21.9531 1.04883 21.4785 1.16602 20.7754C1.29492 20.0605 1.43555 19.2344 1.58789 18.2969C1.75195 17.3594 1.91602 16.3574 2.08008 15.291C2.25586 14.2246 2.41992 13.2109 2.57227 12.25C2.72461 11.2891 2.85352 10.4336 2.95898 9.68359C3.06445 8.92188 3.13477 8.38281 3.16992 8.06641C3.22852 7.49219 3.26953 6.94727 3.29297 6.43164C3.32812 5.91602 3.36914 5.44727 3.41602 5.02539C3.47461 4.5918 3.55078 4.20508 3.64453 3.86523C3.73828 3.52539 3.87891 3.23828 4.06641 3.00391C4.26562 2.75781 4.52344 2.57617 4.83984 2.45898C5.15625 2.33008 5.56055 2.26562 6.05273 2.26562C6.49805 2.26562 6.86133 2.3418 7.14258 2.49414C7.42383 2.64648 7.64648 2.8457 7.81055 3.0918C7.97461 3.33789 8.08594 3.61914 8.14453 3.93555C8.21484 4.24023 8.25 4.55078 8.25 4.86719C8.25 4.98438 8.21484 5.25977 8.14453 5.69336C8.07422 6.11523 7.98047 6.64258 7.86328 7.27539C7.74609 7.89648 7.61133 8.59375 7.45898 9.36719C7.31836 10.1289 7.17188 10.9082 7.01953 11.7051C6.86719 12.502 6.7207 13.2812 6.58008 14.043C6.45117 14.8047 6.33398 15.4902 6.22852 16.0996C6.13477 16.6621 6.01172 17.2715 5.85938 17.9277C5.71875 18.584 5.58984 19.2461 5.47266 19.9141C5.39062 20.4062 5.30273 20.9043 5.20898 21.4082C5.12695 21.9004 5.05078 22.3691 4.98047 22.8145C4.91016 23.2598 4.85156 23.6699 4.80469 24.0449C4.76953 24.4082 4.75195 24.707 4.75195 24.9414C4.75195 25.0703 4.76367 25.1934 4.78711 25.3105C4.81055 25.416 4.85742 25.4688 4.92773 25.4688C5.17383 25.4688 5.49609 25.4336 5.89453 25.3633C6.29297 25.2812 6.72656 25.1816 7.19531 25.0645C7.66406 24.9473 8.14453 24.8184 8.63672 24.6777C9.14062 24.5371 9.60352 24.4023 10.0254 24.2734C10.1309 24.25 10.3301 24.209 10.623 24.1504C10.916 24.0801 11.2559 24.0039 11.6426 23.9219C12.041 23.8398 12.457 23.7578 12.8906 23.6758C13.3359 23.5938 13.752 23.5176 14.1387 23.4473C14.5371 23.377 14.8887 23.3242 15.1934 23.2891C15.498 23.2422 15.709 23.2188 15.8262 23.2188C15.9902 23.2188 16.2891 23.1895 16.7227 23.1309C17.1562 23.0723 17.666 23.043 18.252 23.043C19.1895 23.043 19.8691 23.1602 20.291 23.3945C20.7129 23.6172 20.9238 24.0156 20.9238 24.5898C20.9238 24.8242 20.8828 25.0645 20.8008 25.3105C20.7305 25.5449 20.6133 25.7559 20.4492 25.9434ZM60.2812 13.3223C60.2812 13.6035 60.1289 13.9434 59.8242 14.3418C59.5195 14.7285 59.0859 15.1035 58.5234 15.4668C57.9609 15.8184 57.2812 16.123 56.4844 16.3809C55.6992 16.6387 54.8145 16.7676 53.8301 16.7676C53.6309 16.7676 53.3848 16.7559 53.0918 16.7324C52.8105 16.709 52.5059 16.668 52.1777 16.6094C51.8496 16.5508 51.5039 16.4805 51.1406 16.3984C50.7891 16.3047 50.4434 16.1934 50.1035 16.0645C49.916 16.2754 49.7227 16.5801 49.5234 16.9785C49.3359 17.3652 49.1484 17.8105 48.9609 18.3145C48.7734 18.8066 48.5918 19.334 48.416 19.8965C48.2402 20.459 48.082 21.0156 47.9414 21.5664C47.8125 22.0703 47.6719 22.6094 47.5195 23.1836C47.3789 23.7461 47.2148 24.3086 47.0273 24.8711C46.8398 25.4219 46.6289 25.9551 46.3945 26.4707C46.1602 26.9863 45.8906 27.4434 45.5859 27.8418C45.293 28.2285 44.959 28.5391 44.584 28.7734C44.2207 29.0078 43.8105 29.125 43.3535 29.125C42.791 29.125 42.293 28.9844 41.8594 28.7031C41.4375 28.4219 41.0625 28.0762 40.7344 27.666C40.418 27.2441 40.1426 26.7871 39.9082 26.2949C39.6738 25.8027 39.4688 25.3457 39.293 24.9238C39.2578 24.8301 39.1934 24.6484 39.0996 24.3789C39.0059 24.0977 38.9004 23.7637 38.7832 23.377C38.666 22.9785 38.5371 22.5449 38.3965 22.0762C38.2676 21.6074 38.1387 21.1445 38.0098 20.6875C37.8809 20.2188 37.7637 19.7734 37.6582 19.3516C37.5645 18.9297 37.4883 18.5723 37.4297 18.2793C37.3359 18.5723 37.2129 18.9121 37.0605 19.2988C36.9199 19.6855 36.7734 20.084 36.6211 20.4941C36.4688 20.9043 36.3105 21.3086 36.1465 21.707C35.9941 22.1055 35.8535 22.4688 35.7246 22.7969C35.5957 23.125 35.4785 23.4062 35.373 23.6406C35.2793 23.8633 35.2207 24.0039 35.1973 24.0625C35.0566 24.4258 34.8926 24.8242 34.7051 25.2578C34.5176 25.6797 34.3125 26.1133 34.0898 26.5586C33.8789 26.9922 33.6562 27.4141 33.4219 27.8242C33.1875 28.2344 32.9414 28.5977 32.6836 28.9141C32.4258 29.2305 32.1621 29.4824 31.8926 29.6699C31.6348 29.8691 31.377 29.9688 31.1191 29.9688C30.627 29.9688 30.2051 29.8633 29.8535 29.6523C29.502 29.4531 29.1973 29.1777 28.9395 28.8262C28.6816 28.4746 28.459 28.0762 28.2715 27.6309C28.0957 27.1738 27.9316 26.6992 27.7793 26.207C27.627 25.7148 27.4805 25.2227 27.3398 24.7305C27.1992 24.2266 27.041 23.7578 26.8652 23.3242C26.6543 22.8203 26.4258 22.1875 26.1797 21.4258C25.9453 20.6523 25.7227 19.8613 25.5117 19.0527C25.3008 18.2324 25.125 17.4473 24.9844 16.6973C24.8438 15.9355 24.7734 15.3086 24.7734 14.8164C24.7734 14.2891 24.8027 13.832 24.8613 13.4453C24.9199 13.0469 25.0312 12.7188 25.1953 12.4609C25.3711 12.2031 25.6113 12.0098 25.916 11.8809C26.2324 11.752 26.6426 11.6875 27.1465 11.6875C27.3691 11.6875 27.5801 11.7461 27.7793 11.8633C27.9785 11.9805 28.1602 12.1328 28.3242 12.3203C28.4883 12.5078 28.6289 12.7246 28.7461 12.9707C28.8633 13.2168 28.9512 13.4746 29.0098 13.7441C29.0332 14.8809 29.1387 15.9648 29.3262 16.9961C29.5254 18.0273 29.7246 19.0117 29.9238 19.9492C30.123 20.8398 30.293 21.5781 30.4336 22.1641C30.5859 22.75 30.7148 23.2246 30.8203 23.5879C30.9375 23.9512 31.0312 24.2266 31.1016 24.4141C31.1836 24.6016 31.248 24.7363 31.2949 24.8184C31.3418 24.7363 31.3945 24.6367 31.4531 24.5195C31.5234 24.3906 31.5996 24.2266 31.6816 24.0273C31.7754 23.8281 31.8867 23.5879 32.0156 23.3066C32.1562 23.0137 32.3203 22.6621 32.5078 22.252C32.543 22.1699 32.6367 21.959 32.7891 21.6191C32.9531 21.2793 33.1406 20.8809 33.3516 20.4238C33.5742 19.9551 33.8086 19.457 34.0547 18.9297C34.3008 18.4023 34.5293 17.9102 34.7402 17.4531C34.9512 16.9844 35.1328 16.5918 35.2852 16.2754C35.4375 15.959 35.5254 15.7715 35.5488 15.7129C35.7598 15.291 35.9473 14.8809 36.1113 14.4824C36.2754 14.084 36.457 13.7324 36.6562 13.4277C36.8555 13.1113 37.0898 12.8594 37.3594 12.6719C37.6406 12.4844 37.998 12.3906 38.4316 12.3906C38.9238 12.3906 39.293 12.5254 39.5391 12.7949C39.7852 13.0645 39.9375 13.4629 39.9961 13.9902C40.1719 15.4316 40.4062 16.8086 40.6992 18.1211C41.0039 19.4219 41.3145 20.5762 41.6309 21.584C41.9473 22.5801 42.252 23.377 42.5449 23.9746C42.8496 24.5605 43.0898 24.8535 43.2656 24.8535C43.4297 24.8535 43.5938 24.6367 43.7578 24.2031C43.9336 23.7578 44.1094 23.2012 44.2852 22.5332C44.4727 21.8652 44.666 21.1387 44.8652 20.3535C45.0645 19.5684 45.2695 18.8359 45.4805 18.1562C45.5625 17.875 45.6621 17.5176 45.7793 17.084C45.8965 16.6504 46.0312 16.1934 46.1836 15.7129C46.3477 15.2207 46.5352 14.7285 46.7461 14.2363C46.957 13.7324 47.2031 13.2812 47.4844 12.8828C47.7656 12.4844 48.0879 12.1621 48.4512 11.916C48.8145 11.6582 49.2246 11.5293 49.6816 11.5293C49.9512 11.541 50.1738 11.5703 50.3496 11.6172C50.5371 11.6523 50.6953 11.7109 50.8242 11.793C50.9648 11.8633 51.0938 11.9629 51.2109 12.0918C51.3398 12.209 51.4805 12.3672 51.6328 12.5664C51.7148 12.6719 51.8789 12.7773 52.125 12.8828C52.3828 12.9766 52.6641 13.0645 52.9688 13.1465C53.2852 13.2285 53.5957 13.2988 53.9004 13.3574C54.2051 13.4043 54.4512 13.4277 54.6387 13.4277C55.459 13.4277 56.2207 13.3516 56.9238 13.1992C57.6387 13.0352 58.2422 12.8242 58.7344 12.5664C58.793 12.5312 58.9219 12.4727 59.1211 12.3906C59.3203 12.3086 59.4844 12.2676 59.6133 12.2676C59.7539 12.2676 59.8652 12.2852 59.9473 12.3203C60.0293 12.3438 60.0938 12.3965 60.1406 12.4785C60.1992 12.5488 60.2344 12.6543 60.2461 12.7949C60.2695 12.9238 60.2812 13.0996 60.2812 13.3223ZM65.5547 2.19531C65.5547 2.58203 65.4961 2.95117 65.3789 3.30273C65.2617 3.64258 65.0918 3.96484 64.8691 4.26953C64.4238 4.89062 63.7383 5.20117 62.8125 5.20117C62.4961 5.20117 62.168 5.17773 61.8281 5.13086C61.4883 5.07227 61.1777 4.99023 60.8965 4.88477C60.627 4.76758 60.4043 4.62695 60.2285 4.46289C60.0527 4.29883 59.9648 4.11133 59.9648 3.90039C59.9648 3.53711 60.0586 3.15625 60.2461 2.75781C60.4453 2.34766 60.6914 1.97266 60.9844 1.63281C61.2773 1.28125 61.5996 0.994141 61.9512 0.771484C62.3145 0.537109 62.6602 0.419922 62.9883 0.419922C63.3984 0.419922 63.7617 0.449219 64.0781 0.507812C64.3945 0.554688 64.6641 0.642578 64.8867 0.771484C65.1094 0.900391 65.2734 1.08203 65.3789 1.31641C65.4961 1.55078 65.5547 1.84375 65.5547 2.19531ZM72.3926 22.5859C72.0059 22.9727 71.6367 23.3359 71.2852 23.6758C70.9453 24.0156 70.5996 24.3379 70.248 24.6426C69.8965 24.9473 69.5391 25.2461 69.1758 25.5391C68.8242 25.832 68.4492 26.125 68.0508 26.418C67.2422 27.0039 66.4453 27.4609 65.6602 27.7891C64.875 28.1055 64.1309 28.2637 63.4277 28.2637C62.6074 28.2637 61.8926 28.1289 61.2832 27.8594C60.6855 27.5781 60.1699 27.2031 59.7363 26.7344C59.3145 26.2539 58.9688 25.709 58.6992 25.0996C58.4297 24.4785 58.2129 23.8281 58.0488 23.1484C57.8965 22.457 57.791 21.7598 57.7324 21.0566C57.6738 20.3535 57.6445 19.6855 57.6445 19.0527C57.6445 18.8066 57.6621 18.4551 57.6973 17.998C57.7324 17.5293 57.7793 17.043 57.8379 16.5391C57.9082 16.0234 57.9785 15.5254 58.0488 15.0449C58.1309 14.5645 58.2129 14.1777 58.2949 13.8848C58.3887 13.5801 58.5352 13.293 58.7344 13.0234C58.9453 12.7422 59.2031 12.4844 59.5078 12.25C60.1172 11.7578 60.7969 11.5117 61.5469 11.5117C62.3086 11.5117 62.6895 11.9688 62.6895 12.8828C62.6895 13.1992 62.6543 13.5742 62.584 14.0078C62.5137 14.4414 62.4492 14.8809 62.3906 15.3262C62.3203 15.8535 62.2559 16.3281 62.1973 16.75C62.1387 17.1602 62.0859 17.5352 62.0391 17.875C62.0039 18.2031 61.9746 18.502 61.9512 18.7715C61.9277 19.041 61.916 19.2988 61.916 19.5449C61.916 19.9902 61.9453 20.4883 62.0039 21.0391C62.0742 21.5898 62.1738 22.1055 62.3027 22.5859C62.4316 23.0547 62.5898 23.4531 62.7773 23.7812C62.9648 24.0977 63.1816 24.2559 63.4277 24.2559C63.791 24.2559 64.2012 24.2148 64.6582 24.1328C65.1152 24.0391 65.6016 23.8457 66.1172 23.5527C66.6094 23.2715 67.1191 22.9434 67.6465 22.5684C68.1855 22.1934 68.7363 21.7598 69.2988 21.2676C69.8262 20.8105 70.3418 20.3535 70.8457 19.8965C71.3613 19.4395 71.877 18.9414 72.3926 18.4023C72.627 18.1562 72.8379 17.9336 73.0254 17.7344C73.2246 17.5352 73.4062 17.3477 73.5703 17.1719C73.7344 16.9844 73.8926 16.8086 74.0449 16.6445C74.209 16.4688 74.3789 16.2871 74.5547 16.0996C74.6016 16.041 74.6602 15.9766 74.7305 15.9062C74.8008 15.8242 74.877 15.748 74.959 15.6777C75.041 15.5957 75.1289 15.5312 75.2227 15.4844C75.3164 15.4258 75.4102 15.3965 75.5039 15.3965C75.6328 15.3965 75.7676 15.4258 75.9082 15.4844C76.0605 15.543 76.1777 15.6602 76.2598 15.8359C76.3418 16 76.3887 16.1641 76.4004 16.3281C76.4121 16.4805 76.418 16.6094 76.418 16.7148C76.418 16.832 76.3535 17.0254 76.2246 17.2949C76.0957 17.5527 75.9258 17.8574 75.7148 18.209C75.5039 18.5605 75.2578 18.9355 74.9766 19.334C74.6953 19.7324 74.4082 20.1309 74.1152 20.5293C73.8223 20.9277 73.5234 21.3086 73.2188 21.6719C72.9258 22.0234 72.6504 22.3281 72.3926 22.5859ZM97.8281 21.6191C97.9336 21.6191 98.0156 21.6836 98.0742 21.8125C98.1445 21.9297 98.1797 22.1348 98.1797 22.4277C98.1797 22.8848 98.0273 23.3828 97.7227 23.9219C97.4297 24.4492 96.9902 24.9473 96.4043 25.416C95.8301 25.8848 95.1152 26.2773 94.2598 26.5938C93.4043 26.8984 92.4199 27.0508 91.3066 27.0508C90.2637 27.0508 89.3262 26.8867 88.4941 26.5586C87.6621 26.2188 86.9531 25.6973 86.3672 24.9941C85.7812 24.291 85.3242 23.3945 84.9961 22.3047C84.6797 21.2031 84.5098 19.8848 84.4863 18.3496C83.959 18.7949 83.4199 19.334 82.8691 19.9668C82.3184 20.5879 81.7969 21.2207 81.3047 21.8652C80.8125 22.5098 80.3672 23.1133 79.9688 23.6758C79.582 24.2383 79.2832 24.6719 79.0723 24.9766C78.7676 25.4336 78.5156 25.8203 78.3164 26.1367C78.1289 26.4414 77.9414 26.6934 77.7539 26.8926C77.5781 27.0801 77.3789 27.2207 77.1562 27.3145C76.9336 27.3965 76.6348 27.4375 76.2598 27.4375C75.9199 27.4375 75.6094 27.3848 75.3281 27.2793C75.0469 27.1738 74.8008 27.0391 74.5898 26.875C74.3906 26.7109 74.2324 26.5293 74.1152 26.3301C74.0098 26.1191 73.957 25.9082 73.957 25.6973C73.957 25.498 73.9688 25.2637 73.9922 24.9941C74.0156 24.7246 74.0449 24.4492 74.0801 24.168C74.127 23.8867 74.168 23.6113 74.2031 23.3418C74.25 23.0605 74.291 22.8086 74.3262 22.5859C74.373 22.293 74.4199 21.9824 74.4668 21.6543C74.5254 21.3262 74.584 20.9629 74.6426 20.5645C74.7129 20.166 74.7773 19.7266 74.8359 19.2461C74.9062 18.7539 74.9707 18.209 75.0293 17.6113C75.0996 16.9082 75.1641 16.2285 75.2227 15.5723C75.293 14.9043 75.375 14.2188 75.4688 13.5156C75.5273 13.1055 75.6035 12.7305 75.6973 12.3906C75.791 12.0391 75.9258 11.7402 76.1016 11.4941C76.2773 11.248 76.5059 11.0547 76.7871 10.9141C77.0684 10.7734 77.4316 10.7031 77.877 10.7031C78.2754 10.7031 78.5918 10.75 78.8262 10.8438C79.0605 10.9375 79.2363 11.0664 79.3535 11.2305C79.4707 11.3828 79.541 11.5645 79.5645 11.7754C79.5996 11.9746 79.6172 12.1797 79.6172 12.3906C79.6172 12.5078 79.6113 12.6133 79.5996 12.707C79.5996 12.8008 79.5938 12.8887 79.582 12.9707C79.582 12.9707 79.5762 13.0176 79.5645 13.1113C79.5645 13.2051 79.541 13.3867 79.4941 13.6562C79.4473 13.9258 79.3711 14.3066 79.2656 14.7988C79.1719 15.2793 79.0371 15.9238 78.8613 16.7324C78.7559 17.2012 78.6445 17.6816 78.5273 18.1738C78.4102 18.666 78.2988 19.1348 78.1934 19.5801C78.0996 20.0254 78.0176 20.4297 77.9473 20.793C77.877 21.1445 77.8301 21.4199 77.8066 21.6191C78.0879 21.291 78.416 20.8867 78.791 20.4062C79.166 19.9141 79.541 19.416 79.916 18.9121C80.291 18.4082 80.6543 17.9277 81.0059 17.4707C81.3574 17.0137 81.6562 16.6445 81.9023 16.3633C82.3008 15.918 82.6875 15.4961 83.0625 15.0977C83.4492 14.6992 83.8477 14.3535 84.2578 14.0605C84.668 13.7559 85.1016 13.5215 85.5586 13.3574C86.0156 13.1816 86.5195 13.0938 87.0703 13.0938C87.3867 13.0938 87.6387 13.1289 87.8262 13.1992C88.0137 13.2695 88.1543 13.3691 88.248 13.498C88.3535 13.6152 88.418 13.7559 88.4414 13.9199C88.4766 14.0723 88.4941 14.2363 88.4941 14.4121V14.6934C88.4941 14.7637 88.4766 14.9336 88.4414 15.2031C88.418 15.4609 88.3828 15.7422 88.3359 16.0469C88.3008 16.3516 88.2656 16.6387 88.2305 16.9082C88.207 17.1777 88.1953 17.3535 88.1953 17.4355C88.1953 18.3379 88.2656 19.1816 88.4062 19.9668C88.5469 20.752 88.7637 21.4375 89.0566 22.0234C89.3613 22.5977 89.748 23.0547 90.2168 23.3945C90.6855 23.7227 91.248 23.8867 91.9043 23.8867C92.3613 23.8867 92.7598 23.8633 93.0996 23.8164C93.4395 23.7578 93.7676 23.6699 94.084 23.5527C94.4121 23.4238 94.7461 23.2598 95.0859 23.0605C95.4258 22.8496 95.8184 22.5977 96.2637 22.3047C96.4277 22.1758 96.5977 22.0586 96.7734 21.9531C96.9258 21.8594 97.0898 21.7832 97.2656 21.7246C97.4531 21.6543 97.6406 21.6191 97.8281 21.6191Z" fill="#D4D4D4"/>
</svg>
