<svg width="204" height="83" viewBox="0 0 204 83" fill="none" xmlns="http://www.w3.org/2000/svg">
<path d="M92.0882 75.362C112.393 74.874 134.943 73.1175 157.102 67.848C164.033 66.189 170.769 64.2374 177.114 61.0171C179.945 59.5533 182.776 57.8944 185.314 55.9427C187.169 54.4789 188.731 52.5272 189.902 50.478C192.733 45.5988 191.952 40.622 187.657 37.0114C185.119 34.8645 182.288 33.108 179.262 31.6442C170.671 27.3505 161.495 24.5206 152.221 22.2761C144.51 20.422 136.602 19.6414 128.695 19.1534C127.719 19.0558 126.743 19.1534 125.962 18.7631C125.279 18.4703 124.498 17.5921 124.498 17.0066C124.595 16.2259 125.376 15.4452 126.06 15.0549C126.743 14.6646 127.719 14.8597 128.5 14.8597C141.386 14.7621 153.783 17.2993 165.791 21.4955C171.648 23.5447 177.407 25.9843 183.069 28.6191C185.998 29.9853 188.829 32.0346 191.171 34.279C196.248 39.0606 197.321 45.4036 194.393 51.7466C192.929 55.0644 190.586 57.6992 187.852 59.9437C182.874 63.9446 177.212 66.4818 171.355 68.5311C159.933 72.532 148.121 74.874 136.114 76.533C121.862 78.5822 107.61 79.6557 93.162 79.9484C75.9811 80.2412 58.8002 79.3629 42.0097 75.362C35.274 73.8006 28.8312 71.4586 22.8764 67.9456C18.9716 65.6035 15.4574 62.9688 12.724 59.2606C8.33118 53.3079 7.84308 47.0625 11.1621 40.4268C13.0169 36.7186 15.6526 33.6935 18.6788 30.9611C26.6835 23.7399 36.055 18.8607 46.0121 14.9573C58.9954 9.88293 72.5644 7.15057 86.3287 5.49163C103.998 3.34478 121.667 3.63753 139.336 5.58922C154.564 7.24815 169.598 10.0781 184.045 15.5428C185.9 16.2259 187.657 17.1042 189.414 17.9824C190.683 18.5679 191.464 19.4462 190.976 20.9099C190.586 21.9834 189.317 22.3737 187.755 21.593C178.676 17.4945 169.012 15.4452 159.348 13.396C148.024 11.0539 136.505 9.78534 124.986 9.00467C104.486 7.73607 84.1811 9.29742 64.2668 14.1766C53.5287 16.6162 43.1811 20.422 33.5169 25.9843C28.5383 28.8143 23.8526 32.1321 19.8502 36.3283C18.3859 37.8896 17.0193 39.6461 15.8478 41.5002C12.3336 47.2577 12.9193 53.0152 17.605 57.7968C19.9478 60.2364 22.7788 62.2857 25.7073 64.1398C32.1502 68.1407 39.374 70.19 46.793 71.6538C60.8502 74.4837 75.2001 75.4595 92.0882 75.362Z" fill="#D5D5D5"/>
<path d="M75.4492 51.9434C75.3203 52.1191 75.1621 52.2715 74.9746 52.4004C74.7871 52.5293 74.5879 52.6406 74.377 52.7344C74.166 52.8164 73.9492 52.8809 73.7266 52.9277C73.5156 52.9629 73.3223 52.9805 73.1465 52.9805H70.4922C69.9531 52.9805 69.3555 53.0273 68.6992 53.1211C68.0547 53.2148 67.3984 53.332 66.7305 53.4727C66.0625 53.6133 65.3945 53.7715 64.7266 53.9473C64.0703 54.123 63.4551 54.2871 62.8809 54.4395C61.9316 54.709 61.041 54.9434 60.209 55.1426C59.3887 55.3418 58.6797 55.4414 58.082 55.4414C57.5664 55.4414 57.127 55.3711 56.7637 55.2305C56.4004 55.1016 56.1016 54.9199 55.8672 54.6855C55.6445 54.4629 55.4805 54.2051 55.375 53.9121C55.2695 53.6191 55.2168 53.3145 55.2168 52.998C55.2168 52.4121 55.2871 51.6973 55.4277 50.8535C55.5684 49.998 55.7324 49.1133 55.9199 48.1992C55.9668 47.9531 56.0488 47.4785 56.166 46.7754C56.2949 46.0605 56.4355 45.2344 56.5879 44.2969C56.752 43.3594 56.916 42.3574 57.0801 41.291C57.2559 40.2246 57.4199 39.2109 57.5723 38.25C57.7246 37.2891 57.8535 36.4336 57.959 35.6836C58.0645 34.9219 58.1348 34.3828 58.1699 34.0664C58.2285 33.4922 58.2695 32.9473 58.293 32.4316C58.3281 31.916 58.3691 31.4473 58.416 31.0254C58.4746 30.5918 58.5508 30.2051 58.6445 29.8652C58.7383 29.5254 58.8789 29.2383 59.0664 29.0039C59.2656 28.7578 59.5234 28.5762 59.8398 28.459C60.1562 28.3301 60.5605 28.2656 61.0527 28.2656C61.498 28.2656 61.8613 28.3418 62.1426 28.4941C62.4238 28.6465 62.6465 28.8457 62.8105 29.0918C62.9746 29.3379 63.0859 29.6191 63.1445 29.9355C63.2148 30.2402 63.25 30.5508 63.25 30.8672C63.25 30.9844 63.2148 31.2598 63.1445 31.6934C63.0742 32.1152 62.9805 32.6426 62.8633 33.2754C62.7461 33.8965 62.6113 34.5938 62.459 35.3672C62.3184 36.1289 62.1719 36.9082 62.0195 37.7051C61.8672 38.502 61.7207 39.2812 61.5801 40.043C61.4512 40.8047 61.334 41.4902 61.2285 42.0996C61.1348 42.6621 61.0117 43.2715 60.8594 43.9277C60.7188 44.584 60.5898 45.2461 60.4727 45.9141C60.3906 46.4062 60.3027 46.9043 60.209 47.4082C60.127 47.9004 60.0508 48.3691 59.9805 48.8145C59.9102 49.2598 59.8516 49.6699 59.8047 50.0449C59.7695 50.4082 59.752 50.707 59.752 50.9414C59.752 51.0703 59.7637 51.1934 59.7871 51.3105C59.8105 51.416 59.8574 51.4688 59.9277 51.4688C60.1738 51.4688 60.4961 51.4336 60.8945 51.3633C61.293 51.2812 61.7266 51.1816 62.1953 51.0645C62.6641 50.9473 63.1445 50.8184 63.6367 50.6777C64.1406 50.5371 64.6035 50.4023 65.0254 50.2734C65.1309 50.25 65.3301 50.209 65.623 50.1504C65.916 50.0801 66.2559 50.0039 66.6426 49.9219C67.041 49.8398 67.457 49.7578 67.8906 49.6758C68.3359 49.5938 68.752 49.5176 69.1387 49.4473C69.5371 49.377 69.8887 49.3242 70.1934 49.2891C70.498 49.2422 70.709 49.2188 70.8262 49.2188C70.9902 49.2188 71.2891 49.1895 71.7227 49.1309C72.1562 49.0723 72.666 49.043 73.252 49.043C74.1895 49.043 74.8691 49.1602 75.291 49.3945C75.7129 49.6172 75.9238 50.0156 75.9238 50.5898C75.9238 50.8242 75.8828 51.0645 75.8008 51.3105C75.7305 51.5449 75.6133 51.7559 75.4492 51.9434ZM115.281 39.3223C115.281 39.6035 115.129 39.9434 114.824 40.3418C114.52 40.7285 114.086 41.1035 113.523 41.4668C112.961 41.8184 112.281 42.123 111.484 42.3809C110.699 42.6387 109.814 42.7676 108.83 42.7676C108.631 42.7676 108.385 42.7559 108.092 42.7324C107.811 42.709 107.506 42.668 107.178 42.6094C106.85 42.5508 106.504 42.4805 106.141 42.3984C105.789 42.3047 105.443 42.1934 105.104 42.0645C104.916 42.2754 104.723 42.5801 104.523 42.9785C104.336 43.3652 104.148 43.8105 103.961 44.3145C103.773 44.8066 103.592 45.334 103.416 45.8965C103.24 46.459 103.082 47.0156 102.941 47.5664C102.812 48.0703 102.672 48.6094 102.52 49.1836C102.379 49.7461 102.215 50.3086 102.027 50.8711C101.84 51.4219 101.629 51.9551 101.395 52.4707C101.16 52.9863 100.891 53.4434 100.586 53.8418C100.293 54.2285 99.959 54.5391 99.584 54.7734C99.2207 55.0078 98.8105 55.125 98.3535 55.125C97.791 55.125 97.293 54.9844 96.8594 54.7031C96.4375 54.4219 96.0625 54.0762 95.7344 53.666C95.418 53.2441 95.1426 52.7871 94.9082 52.2949C94.6738 51.8027 94.4688 51.3457 94.293 50.9238C94.2578 50.8301 94.1934 50.6484 94.0996 50.3789C94.0059 50.0977 93.9004 49.7637 93.7832 49.377C93.666 48.9785 93.5371 48.5449 93.3965 48.0762C93.2676 47.6074 93.1387 47.1445 93.0098 46.6875C92.8809 46.2188 92.7637 45.7734 92.6582 45.3516C92.5645 44.9297 92.4883 44.5723 92.4297 44.2793C92.3359 44.5723 92.2129 44.9121 92.0605 45.2988C91.9199 45.6855 91.7734 46.084 91.6211 46.4941C91.4688 46.9043 91.3105 47.3086 91.1465 47.707C90.9941 48.1055 90.8535 48.4688 90.7246 48.7969C90.5957 49.125 90.4785 49.4062 90.373 49.6406C90.2793 49.8633 90.2207 50.0039 90.1973 50.0625C90.0566 50.4258 89.8926 50.8242 89.7051 51.2578C89.5176 51.6797 89.3125 52.1133 89.0898 52.5586C88.8789 52.9922 88.6562 53.4141 88.4219 53.8242C88.1875 54.2344 87.9414 54.5977 87.6836 54.9141C87.4258 55.2305 87.1621 55.4824 86.8926 55.6699C86.6348 55.8691 86.377 55.9688 86.1191 55.9688C85.627 55.9688 85.2051 55.8633 84.8535 55.6523C84.502 55.4531 84.1973 55.1777 83.9395 54.8262C83.6816 54.4746 83.459 54.0762 83.2715 53.6309C83.0957 53.1738 82.9316 52.6992 82.7793 52.207C82.627 51.7148 82.4805 51.2227 82.3398 50.7305C82.1992 50.2266 82.041 49.7578 81.8652 49.3242C81.6543 48.8203 81.4258 48.1875 81.1797 47.4258C80.9453 46.6523 80.7227 45.8613 80.5117 45.0527C80.3008 44.2324 80.125 43.4473 79.9844 42.6973C79.8438 41.9355 79.7734 41.3086 79.7734 40.8164C79.7734 40.2891 79.8027 39.832 79.8613 39.4453C79.9199 39.0469 80.0312 38.7188 80.1953 38.4609C80.3711 38.2031 80.6113 38.0098 80.916 37.8809C81.2324 37.752 81.6426 37.6875 82.1465 37.6875C82.3691 37.6875 82.5801 37.7461 82.7793 37.8633C82.9785 37.9805 83.1602 38.1328 83.3242 38.3203C83.4883 38.5078 83.6289 38.7246 83.7461 38.9707C83.8633 39.2168 83.9512 39.4746 84.0098 39.7441C84.0332 40.8809 84.1387 41.9648 84.3262 42.9961C84.5254 44.0273 84.7246 45.0117 84.9238 45.9492C85.123 46.8398 85.293 47.5781 85.4336 48.1641C85.5859 48.75 85.7148 49.2246 85.8203 49.5879C85.9375 49.9512 86.0312 50.2266 86.1016 50.4141C86.1836 50.6016 86.248 50.7363 86.2949 50.8184C86.3418 50.7363 86.3945 50.6367 86.4531 50.5195C86.5234 50.3906 86.5996 50.2266 86.6816 50.0273C86.7754 49.8281 86.8867 49.5879 87.0156 49.3066C87.1562 49.0137 87.3203 48.6621 87.5078 48.252C87.543 48.1699 87.6367 47.959 87.7891 47.6191C87.9531 47.2793 88.1406 46.8809 88.3516 46.4238C88.5742 45.9551 88.8086 45.457 89.0547 44.9297C89.3008 44.4023 89.5293 43.9102 89.7402 43.4531C89.9512 42.9844 90.1328 42.5918 90.2852 42.2754C90.4375 41.959 90.5254 41.7715 90.5488 41.7129C90.7598 41.291 90.9473 40.8809 91.1113 40.4824C91.2754 40.084 91.457 39.7324 91.6562 39.4277C91.8555 39.1113 92.0898 38.8594 92.3594 38.6719C92.6406 38.4844 92.998 38.3906 93.4316 38.3906C93.9238 38.3906 94.293 38.5254 94.5391 38.7949C94.7852 39.0645 94.9375 39.4629 94.9961 39.9902C95.1719 41.4316 95.4062 42.8086 95.6992 44.1211C96.0039 45.4219 96.3145 46.5762 96.6309 47.584C96.9473 48.5801 97.252 49.377 97.5449 49.9746C97.8496 50.5605 98.0898 50.8535 98.2656 50.8535C98.4297 50.8535 98.5938 50.6367 98.7578 50.2031C98.9336 49.7578 99.1094 49.2012 99.2852 48.5332C99.4727 47.8652 99.666 47.1387 99.8652 46.3535C100.064 45.5684 100.27 44.8359 100.48 44.1562C100.562 43.875 100.662 43.5176 100.779 43.084C100.896 42.6504 101.031 42.1934 101.184 41.7129C101.348 41.2207 101.535 40.7285 101.746 40.2363C101.957 39.7324 102.203 39.2812 102.484 38.8828C102.766 38.4844 103.088 38.1621 103.451 37.916C103.814 37.6582 104.225 37.5293 104.682 37.5293C104.951 37.541 105.174 37.5703 105.35 37.6172C105.537 37.6523 105.695 37.7109 105.824 37.793C105.965 37.8633 106.094 37.9629 106.211 38.0918C106.34 38.209 106.48 38.3672 106.633 38.5664C106.715 38.6719 106.879 38.7773 107.125 38.8828C107.383 38.9766 107.664 39.0645 107.969 39.1465C108.285 39.2285 108.596 39.2988 108.9 39.3574C109.205 39.4043 109.451 39.4277 109.639 39.4277C110.459 39.4277 111.221 39.3516 111.924 39.1992C112.639 39.0352 113.242 38.8242 113.734 38.5664C113.793 38.5312 113.922 38.4727 114.121 38.3906C114.32 38.3086 114.484 38.2676 114.613 38.2676C114.754 38.2676 114.865 38.2852 114.947 38.3203C115.029 38.3438 115.094 38.3965 115.141 38.4785C115.199 38.5488 115.234 38.6543 115.246 38.7949C115.27 38.9238 115.281 39.0996 115.281 39.3223ZM120.555 28.1953C120.555 28.582 120.496 28.9512 120.379 29.3027C120.262 29.6426 120.092 29.9648 119.869 30.2695C119.424 30.8906 118.738 31.2012 117.812 31.2012C117.496 31.2012 117.168 31.1777 116.828 31.1309C116.488 31.0723 116.178 30.9902 115.896 30.8848C115.627 30.7676 115.404 30.627 115.229 30.4629C115.053 30.2988 114.965 30.1113 114.965 29.9004C114.965 29.5371 115.059 29.1562 115.246 28.7578C115.445 28.3477 115.691 27.9727 115.984 27.6328C116.277 27.2812 116.6 26.9941 116.951 26.7715C117.314 26.5371 117.66 26.4199 117.988 26.4199C118.398 26.4199 118.762 26.4492 119.078 26.5078C119.395 26.5547 119.664 26.6426 119.887 26.7715C120.109 26.9004 120.273 27.082 120.379 27.3164C120.496 27.5508 120.555 27.8438 120.555 28.1953ZM127.393 48.5859C127.006 48.9727 126.637 49.3359 126.285 49.6758C125.945 50.0156 125.6 50.3379 125.248 50.6426C124.896 50.9473 124.539 51.2461 124.176 51.5391C123.824 51.832 123.449 52.125 123.051 52.418C122.242 53.0039 121.445 53.4609 120.66 53.7891C119.875 54.1055 119.131 54.2637 118.428 54.2637C117.607 54.2637 116.893 54.1289 116.283 53.8594C115.686 53.5781 115.17 53.2031 114.736 52.7344C114.314 52.2539 113.969 51.709 113.699 51.0996C113.43 50.4785 113.213 49.8281 113.049 49.1484C112.896 48.457 112.791 47.7598 112.732 47.0566C112.674 46.3535 112.645 45.6855 112.645 45.0527C112.645 44.8066 112.662 44.4551 112.697 43.998C112.732 43.5293 112.779 43.043 112.838 42.5391C112.908 42.0234 112.979 41.5254 113.049 41.0449C113.131 40.5645 113.213 40.1777 113.295 39.8848C113.389 39.5801 113.535 39.293 113.734 39.0234C113.945 38.7422 114.203 38.4844 114.508 38.25C115.117 37.7578 115.797 37.5117 116.547 37.5117C117.309 37.5117 117.689 37.9688 117.689 38.8828C117.689 39.1992 117.654 39.5742 117.584 40.0078C117.514 40.4414 117.449 40.8809 117.391 41.3262C117.32 41.8535 117.256 42.3281 117.197 42.75C117.139 43.1602 117.086 43.5352 117.039 43.875C117.004 44.2031 116.975 44.502 116.951 44.7715C116.928 45.041 116.916 45.2988 116.916 45.5449C116.916 45.9902 116.945 46.4883 117.004 47.0391C117.074 47.5898 117.174 48.1055 117.303 48.5859C117.432 49.0547 117.59 49.4531 117.777 49.7812C117.965 50.0977 118.182 50.2559 118.428 50.2559C118.791 50.2559 119.201 50.2148 119.658 50.1328C120.115 50.0391 120.602 49.8457 121.117 49.5527C121.609 49.2715 122.119 48.9434 122.646 48.5684C123.186 48.1934 123.736 47.7598 124.299 47.2676C124.826 46.8105 125.342 46.3535 125.846 45.8965C126.361 45.4395 126.877 44.9414 127.393 44.4023C127.627 44.1562 127.838 43.9336 128.025 43.7344C128.225 43.5352 128.406 43.3477 128.57 43.1719C128.734 42.9844 128.893 42.8086 129.045 42.6445C129.209 42.4688 129.379 42.2871 129.555 42.0996C129.602 42.041 129.66 41.9766 129.73 41.9062C129.801 41.8242 129.877 41.748 129.959 41.6777C130.041 41.5957 130.129 41.5312 130.223 41.4844C130.316 41.4258 130.41 41.3965 130.504 41.3965C130.633 41.3965 130.768 41.4258 130.908 41.4844C131.061 41.543 131.178 41.6602 131.26 41.8359C131.342 42 131.389 42.1641 131.4 42.3281C131.412 42.4805 131.418 42.6094 131.418 42.7148C131.418 42.832 131.354 43.0254 131.225 43.2949C131.096 43.5527 130.926 43.8574 130.715 44.209C130.504 44.5605 130.258 44.9355 129.977 45.334C129.695 45.7324 129.408 46.1309 129.115 46.5293C128.822 46.9277 128.523 47.3086 128.219 47.6719C127.926 48.0234 127.65 48.3281 127.393 48.5859ZM152.828 47.6191C152.934 47.6191 153.016 47.6836 153.074 47.8125C153.145 47.9297 153.18 48.1348 153.18 48.4277C153.18 48.8848 153.027 49.3828 152.723 49.9219C152.43 50.4492 151.99 50.9473 151.404 51.416C150.83 51.8848 150.115 52.2773 149.26 52.5938C148.404 52.8984 147.42 53.0508 146.307 53.0508C145.264 53.0508 144.326 52.8867 143.494 52.5586C142.662 52.2188 141.953 51.6973 141.367 50.9941C140.781 50.291 140.324 49.3945 139.996 48.3047C139.68 47.2031 139.51 45.8848 139.486 44.3496C138.959 44.7949 138.42 45.334 137.869 45.9668C137.318 46.5879 136.797 47.2207 136.305 47.8652C135.812 48.5098 135.367 49.1133 134.969 49.6758C134.582 50.2383 134.283 50.6719 134.072 50.9766C133.768 51.4336 133.516 51.8203 133.316 52.1367C133.129 52.4414 132.941 52.6934 132.754 52.8926C132.578 53.0801 132.379 53.2207 132.156 53.3145C131.934 53.3965 131.635 53.4375 131.26 53.4375C130.92 53.4375 130.609 53.3848 130.328 53.2793C130.047 53.1738 129.801 53.0391 129.59 52.875C129.391 52.7109 129.232 52.5293 129.115 52.3301C129.01 52.1191 128.957 51.9082 128.957 51.6973C128.957 51.498 128.969 51.2637 128.992 50.9941C129.016 50.7246 129.045 50.4492 129.08 50.168C129.127 49.8867 129.168 49.6113 129.203 49.3418C129.25 49.0605 129.291 48.8086 129.326 48.5859C129.373 48.293 129.42 47.9824 129.467 47.6543C129.525 47.3262 129.584 46.9629 129.643 46.5645C129.713 46.166 129.777 45.7266 129.836 45.2461C129.906 44.7539 129.971 44.209 130.029 43.6113C130.1 42.9082 130.164 42.2285 130.223 41.5723C130.293 40.9043 130.375 40.2188 130.469 39.5156C130.527 39.1055 130.604 38.7305 130.697 38.3906C130.791 38.0391 130.926 37.7402 131.102 37.4941C131.277 37.248 131.506 37.0547 131.787 36.9141C132.068 36.7734 132.432 36.7031 132.877 36.7031C133.275 36.7031 133.592 36.75 133.826 36.8438C134.061 36.9375 134.236 37.0664 134.354 37.2305C134.471 37.3828 134.541 37.5645 134.564 37.7754C134.6 37.9746 134.617 38.1797 134.617 38.3906C134.617 38.5078 134.611 38.6133 134.6 38.707C134.6 38.8008 134.594 38.8887 134.582 38.9707C134.582 38.9707 134.576 39.0176 134.564 39.1113C134.564 39.2051 134.541 39.3867 134.494 39.6562C134.447 39.9258 134.371 40.3066 134.266 40.7988C134.172 41.2793 134.037 41.9238 133.861 42.7324C133.756 43.2012 133.645 43.6816 133.527 44.1738C133.41 44.666 133.299 45.1348 133.193 45.5801C133.1 46.0254 133.018 46.4297 132.947 46.793C132.877 47.1445 132.83 47.4199 132.807 47.6191C133.088 47.291 133.416 46.8867 133.791 46.4062C134.166 45.9141 134.541 45.416 134.916 44.9121C135.291 44.4082 135.654 43.9277 136.006 43.4707C136.357 43.0137 136.656 42.6445 136.902 42.3633C137.301 41.918 137.688 41.4961 138.062 41.0977C138.449 40.6992 138.848 40.3535 139.258 40.0605C139.668 39.7559 140.102 39.5215 140.559 39.3574C141.016 39.1816 141.52 39.0938 142.07 39.0938C142.387 39.0938 142.639 39.1289 142.826 39.1992C143.014 39.2695 143.154 39.3691 143.248 39.498C143.354 39.6152 143.418 39.7559 143.441 39.9199C143.477 40.0723 143.494 40.2363 143.494 40.4121V40.6934C143.494 40.7637 143.477 40.9336 143.441 41.2031C143.418 41.4609 143.383 41.7422 143.336 42.0469C143.301 42.3516 143.266 42.6387 143.23 42.9082C143.207 43.1777 143.195 43.3535 143.195 43.4355C143.195 44.3379 143.266 45.1816 143.406 45.9668C143.547 46.752 143.764 47.4375 144.057 48.0234C144.361 48.5977 144.748 49.0547 145.217 49.3945C145.686 49.7227 146.248 49.8867 146.904 49.8867C147.361 49.8867 147.76 49.8633 148.1 49.8164C148.439 49.7578 148.768 49.6699 149.084 49.5527C149.412 49.4238 149.746 49.2598 150.086 49.0605C150.426 48.8496 150.818 48.5977 151.264 48.3047C151.428 48.1758 151.598 48.0586 151.773 47.9531C151.926 47.8594 152.09 47.7832 152.266 47.7246C152.453 47.6543 152.641 47.6191 152.828 47.6191Z" fill="#D4D4D4"/>
</svg>
