<svg width="43" height="43" viewBox="0 0 43 43" fill="none" xmlns="http://www.w3.org/2000/svg">
<path d="M29.3118 25.0835C29.4552 23.901 29.5627 22.7185 29.5627 21.5002C29.5627 20.2818 29.4552 19.0993 29.3118 17.9168H35.3677C35.6543 19.0635 35.8335 20.2639 35.8335 21.5002C35.8335 22.7364 35.6543 23.9368 35.3677 25.0835H29.3118ZM26.1406 35.0452C27.2156 33.0564 28.0397 30.9064 28.6131 28.6668H33.8985C32.1627 31.6558 29.4088 33.92 26.1406 35.0452ZM25.6927 25.0835H17.3077C17.1285 23.901 17.021 22.7185 17.021 21.5002C17.021 20.2818 17.1285 19.0814 17.3077 17.9168H25.6927C25.8539 19.0814 25.9793 20.2818 25.9793 21.5002C25.9793 22.7185 25.8539 23.901 25.6927 25.0835ZM21.5002 35.7618C20.0131 33.6118 18.8127 31.2289 18.0781 28.6668H24.9222C24.1877 31.2289 22.9872 33.6118 21.5002 35.7618ZM14.3335 14.3335H9.10183C10.8198 11.3364 13.5717 9.06866 16.8418 7.95516C15.7668 9.94391 14.9606 12.0939 14.3335 14.3335ZM9.10183 28.6668H14.3335C14.9606 30.9064 15.7668 33.0564 16.8418 35.0452C13.5785 33.9194 10.8305 31.6548 9.10183 28.6668ZM7.63266 25.0835C7.346 23.9368 7.16683 22.7364 7.16683 21.5002C7.16683 20.2639 7.346 19.0635 7.63266 17.9168H13.6885C13.5452 19.0993 13.4377 20.2818 13.4377 21.5002C13.4377 22.7185 13.5452 23.901 13.6885 25.0835H7.63266ZM21.5002 7.22058C22.9872 9.37058 24.1877 11.7714 24.9222 14.3335H18.0781C18.8127 11.7714 20.0131 9.37058 21.5002 7.22058ZM33.8985 14.3335H28.6131C28.0523 12.1144 27.222 9.97239 26.1406 7.95516C29.4372 9.08391 32.1785 11.3593 33.8985 14.3335ZM21.5002 3.5835C11.5922 3.5835 3.5835 11.646 3.5835 21.5002C3.5835 26.252 5.47114 30.8091 8.83117 34.1692C10.4949 35.8329 12.47 37.1526 14.6438 38.053C16.8175 38.9534 19.1473 39.4168 21.5002 39.4168C26.252 39.4168 30.8091 37.5292 34.1692 34.1692C37.5292 30.8091 39.4168 26.252 39.4168 21.5002C39.4168 19.1473 38.9534 16.8175 38.053 14.6438C37.1526 12.47 35.8329 10.4949 34.1692 8.83117C32.5054 7.16745 30.5303 5.84772 28.3566 4.94732C26.1828 4.04692 23.853 3.5835 21.5002 3.5835Z" fill="#6C9EE9"/>
</svg>
