<svg width="94" height="72" viewBox="0 0 94 72" fill="none" xmlns="http://www.w3.org/2000/svg">
<path d="M0 12.5C0 9.38371 1.23794 6.39505 3.4415 4.19149C5.64505 1.98794 8.63371 0.75 11.75 0.75H82.25C85.3663 0.75 88.3549 1.98794 90.5585 4.19149C92.7621 6.39505 94 9.38371 94 12.5V59.5C94 62.6163 92.7621 65.6049 90.5585 67.8085C88.3549 70.0121 85.3663 71.25 82.25 71.25H11.75C8.63371 71.25 5.64505 70.0121 3.4415 67.8085C1.23794 65.6049 0 62.6163 0 59.5V12.5ZM14.6875 18.375C13.9084 18.375 13.1613 18.6845 12.6104 19.2354C12.0595 19.7863 11.75 20.5334 11.75 21.3125V27.1875C11.75 27.9666 12.0595 28.7137 12.6104 29.2646C13.1613 29.8155 13.9084 30.125 14.6875 30.125H26.4375C27.2166 30.125 27.9637 29.8155 28.5146 29.2646C29.0655 28.7137 29.375 27.9666 29.375 27.1875V21.3125C29.375 20.5334 29.0655 19.7863 28.5146 19.2354C27.9637 18.6845 27.2166 18.375 26.4375 18.375H14.6875ZM14.6875 36C13.9084 36 13.1613 36.3095 12.6104 36.8604C12.0595 37.4113 11.75 38.1584 11.75 38.9375C11.75 39.7166 12.0595 40.4637 12.6104 41.0146C13.1613 41.5655 13.9084 41.875 14.6875 41.875H44.0625C44.8416 41.875 45.5887 41.5655 46.1396 41.0146C46.6905 40.4637 47 39.7166 47 38.9375C47 38.1584 46.6905 37.4113 46.1396 36.8604C45.5887 36.3095 44.8416 36 44.0625 36H14.6875ZM14.6875 47.75C13.9084 47.75 13.1613 48.0595 12.6104 48.6104C12.0595 49.1613 11.75 49.9084 11.75 50.6875C11.75 51.4666 12.0595 52.2137 12.6104 52.7646C13.1613 53.3155 13.9084 53.625 14.6875 53.625H20.5625C21.3416 53.625 22.0887 53.3155 22.6396 52.7646C23.1905 52.2137 23.5 51.4666 23.5 50.6875C23.5 49.9084 23.1905 49.1613 22.6396 48.6104C22.0887 48.0595 21.3416 47.75 20.5625 47.75H14.6875ZM32.3125 47.75C31.5334 47.75 30.7863 48.0595 30.2354 48.6104C29.6845 49.1613 29.375 49.9084 29.375 50.6875C29.375 51.4666 29.6845 52.2137 30.2354 52.7646C30.7863 53.3155 31.5334 53.625 32.3125 53.625H38.1875C38.9666 53.625 39.7137 53.3155 40.2646 52.7646C40.8155 52.2137 41.125 51.4666 41.125 50.6875C41.125 49.9084 40.8155 49.1613 40.2646 48.6104C39.7137 48.0595 38.9666 47.75 38.1875 47.75H32.3125ZM49.9375 47.75C49.1584 47.75 48.4113 48.0595 47.8604 48.6104C47.3095 49.1613 47 49.9084 47 50.6875C47 51.4666 47.3095 52.2137 47.8604 52.7646C48.4113 53.3155 49.1584 53.625 49.9375 53.625H55.8125C56.5916 53.625 57.3387 53.3155 57.8896 52.7646C58.4405 52.2137 58.75 51.4666 58.75 50.6875C58.75 49.9084 58.4405 49.1613 57.8896 48.6104C57.3387 48.0595 56.5916 47.75 55.8125 47.75H49.9375ZM67.5625 47.75C66.7834 47.75 66.0363 48.0595 65.4854 48.6104C64.9345 49.1613 64.625 49.9084 64.625 50.6875C64.625 51.4666 64.9345 52.2137 65.4854 52.7646C66.0363 53.3155 66.7834 53.625 67.5625 53.625H73.4375C74.2166 53.625 74.9637 53.3155 75.5146 52.7646C76.0655 52.2137 76.375 51.4666 76.375 50.6875C76.375 49.9084 76.0655 49.1613 75.5146 48.6104C74.9637 48.0595 74.2166 47.75 73.4375 47.75H67.5625Z" fill="#212121"/>
</svg>
